<?xml version="1.0" encoding="UTF-8"?>
<svg width="34" height="29" xmlns="http://www.w3.org/2000/svg" xmlns:xlink="http://www.w3.org/1999/xlink">
    <defs>
        <path
            d="M17.203 11.296a1 1 0 011.414-.006l3.913 3.878a1 1 0 01-1.408 1.42L18.913 14.4v13.252a1 1 0 11-2 0V14.433l-2.21 2.19a1 1 0 01-1.407-1.42l3.777-3.745c.037-.057.08-.112.13-.162z"
            id="upload"/>
    </defs>
    <g fill="none" fill-rule="evenodd">
        <path
            d="M34 16.72c0 3.458-2.833 6.28-6.304 6.28H6.304C2.834 23 0 20.178 0 16.72c0-2.398 1.417-4.656 3.612-5.643-.07-.353-.07-.706-.07-1.059 0-3.386 2.762-6.138 6.162-6.138 1.488 0 2.833.494 3.967 1.411C14.875 2.187 17.92 0 21.39 0c4.534 0 8.217 3.669 8.217 8.184 0 .847-.141 1.693-.354 2.47C31.946 11.287 34 13.757 34 16.72z"
            fill="#DDE2ED"/>
        <use fill="#1F2E3D" xlink:href="#upload"/>
    </g>
</svg>
