<?xml version="1.0" encoding="UTF-8"?>
<svg width="22px" height="22px" viewBox="0 0 22 22" version="1.1" xmlns="http://www.w3.org/2000/svg"
     xmlns:xlink="http://www.w3.org/1999/xlink">
    <title>FF7CC751-13AC-456F-97C7-B9AF371DCCD9@1x</title>
    <defs>
        <path
            d="M22.7,21.3 L17.2,15.8 C16.9872735,15.5286116 16.6330142,15.4105251 16.3,15.5 C16.0493715,15.641019 15.8146813,15.8086548 15.6,16 C14.216242,17.2910442 12.3924963,18.0062386 10.5,18 C6.36921138,17.9727332 3.02726682,14.6307886 3,10.5 C3.02726682,6.36921138 6.36921138,3.02726682 10.5,3 C14.6307886,3.02726682 17.9727332,6.36921138 18,10.5 C18.003985,11.4978871 17.7996267,12.4856187 17.4,13.4 C17.1772113,13.7310861 17.1725986,14.1629354 17.3882644,14.4987047 C17.6039302,14.834474 17.9985816,15.0098746 18.3923307,14.9449564 C18.7860798,14.8800381 19.1035368,14.5872307 19.2,14.2 C19.7132278,13.0331626 19.9853416,11.7746362 20,10.5 C19.9672582,5.26691699 15.733083,1.03274183 10.5,1 C5.26691699,1.03274183 1.03274183,5.26691699 1,10.5 C1.03274183,15.733083 5.26691699,19.9672582 10.5,20 C12.6592009,19.8858014 14.7408572,19.1572217 16.5,17.9 L21.3,22.7 C21.6888435,23.0811429 22.3111565,23.0811429 22.7,22.7 C23.0811429,22.3111565 23.0811429,21.6888435 22.7,21.3 Z"
            id="path-search"></path>
    </defs>
    <g id="ic-search" stroke="none" stroke-width="1" fill="none" fill-rule="evenodd">
        <g transform="translate(-298.000000, -514.000000)">
            <g id="ic-search-group" transform="translate(297.000000, 513.000000)">
                <polygon id="ic-shape-search" points="0 0 24 0 24 24 0 24"></polygon>
                <mask id="mask-ic-search" fill="white">
                    <use xlink:href="#path-search"></use>
                </mask>
                <use id="ic-shape-search" fill="#000000" fill-rule="nonzero" xlink:href="#path-search"></use>
                <g mask="url(#mask-ic-search)" fill="%344254" fill-rule="nonzero">
                    <g>
                        <rect id="search" x="0" y="0" width="24" height="24"></rect>
                    </g>
                </g>
            </g>
        </g>
    </g>
</svg>
