<?xml version="1.0" encoding="UTF-8"?>
<svg width="24" height="19" xmlns="http://www.w3.org/2000/svg">
    <path
        d="M11.5 15c1.1045695 0 2 .8954305 2 2s-.8954305 2-2 2-2-.8954305-2-2 .8954305-2 2-2zm7 0c1.1045695 0 2 .8954305 2 2s-.8954305 2-2 2-2-.8954305-2-2 .8954305-2 2-2zM6.16827831 0L9.101 11h11.754l1.2165233-3.03805734c.1904625-.47615613.705868-.72522487 1.1890888-.59415147l.1107786.03706545c.4761561.19046245.7252248.70586796.5941514 1.18908876l-.0370654.11077861L22.2103663 13H7.56505502L4.631 2H1c-.51283584 0-.93550716-.38604019-.99327227-.88337887L0 1C0 .48716416.38604019.06449284.88337888.00672773L1 0h5.16827831z"
        fill="currentColor" fill-rule="evenodd"/>
</svg>
