<?xml version="1.0" encoding="UTF-8"?>
<svg width="176" height="132" xmlns="http://www.w3.org/2000/svg">
    <g fill="none" fill-rule="evenodd">
        <circle fill="#FFF" opacity=".8" cx="88" cy="80" r="47"/>
        <path
            d="M139 80.5a2 2 0 012 2c0 26.786-21.714 48.5-48.5 48.5-11.131 0-21.693-3.764-30.216-10.56a2 2 0 112.494-3.128C72.598 123.549 82.283 127 92.5 127c24.577 0 44.5-19.923 44.5-44.5a2 2 0 012-2zM79.698 37.74a2 2 0 01-1.266 2.529C60.405 46.27 48 63.195 48 82.5c0 3.529.41 7.003 1.215 10.373a2 2 0 11-3.89.929A48.624 48.624 0 0144 82.5c0-21.04 13.52-39.484 33.168-46.026a2 2 0 012.53 1.266z"
            fill="#637182" fill-rule="nonzero"/>
        <circle fill-opacity=".4" fill="#344254" cx="138.5" cy="33.5" r="3.5"/>
        <circle fill-opacity=".4" fill="#344254" cx="104.5" cy="52.5" r="2.5"/>
        <circle fill-opacity=".4" fill="#344254" cx="94.5" cy="34.5" r="2.5"/>
        <circle fill-opacity=".5" fill="#344254" cx="3.5" cy="61.5" r="3.5"/>
        <circle fill-opacity=".5" fill="#344254" cx="173.5" cy="38.5" r="2.5"/>
        <circle fill-opacity=".5" fill="#344254" cx="134" cy="2" r="2"/>
        <circle fill-opacity=".5" fill="#344254" cx="134" cy="46" r="2"/>
        <circle fill-opacity=".5" fill="#344254" cx="162" cy="63" r="2"/>
        <circle fill-opacity=".5" fill="#344254" cx="90" cy="20" r="2"/>
        <circle fill-opacity=".5" fill="#344254" cx="145.5" cy="128.5" r="3.5"/>
        <circle fill-opacity=".5" fill="#344254" cx="32" cy="44" r="5"/>
        <circle fill-opacity=".5" fill="#344254" cx="28.5" cy="33.5" r="2.5"/>
        <g fill-rule="nonzero">
            <path
                d="M93.209 40.64a2 2 0 011.342 2.366l-.04.144-2.134 6.743a2 2 0 01-3.854-1.063l.04-.144 2.135-6.743a2 2 0 012.51-1.303z"
                fill="#637182"/>
            <path d="M115.637 61.495a2 2 0 012.705 2.944l-.11.1-5.384 4.588a2 2 0 01-2.705-2.944l.11-.1 5.384-4.588z"
                  fill="#9EA7BC"/>
            <path
                d="M143.83 65.752a2 2 0 11-.946 3.886c-1.922-.468-3.662-.365-5.279.295-1.117.456-1.81.863-2.457 1.397-.198.164-.396.342-.656.588l-.772.746a30.683 30.683 0 01-2.744 2.378c-2.043 1.577-4.328 2.363-6.79 2.32a2 2 0 11.07-4c1.537.028 2.94-.455 4.277-1.487l.737-.58c.49-.397.866-.742 1.69-1.53l.596-.573c.41-.394.713-.672 1.043-.944.968-.801 2.013-1.413 3.495-2.018 2.417-.986 5.016-1.14 7.737-.478z"
                fill="#637182"/>
            <path
                d="M138.095 18.539a2 2 0 011.08 3.852c-1.594.446-2.817 1.237-3.731 2.393-.64.81-.984 1.4-1.24 2.064l-.095.257c-.032.09-.064.187-.098.294l-.326 1.07a27.576 27.576 0 01-1.09 3.022c-.906 2.131-2.343 3.755-4.276 4.803a2 2 0 11-1.907-3.516c1.12-.608 1.943-1.536 2.503-2.853l.24-.572c.172-.422.29-.746.458-1.269l.46-1.492c.146-.482.262-.83.4-1.186.405-1.05.951-1.987 1.833-3.103 1.45-1.834 3.4-3.095 5.79-3.764zM105.83 41.741a2 2 0 01-2.343-3.238l.126-.091c1.54-1.026 2.256-3.314 2.474-7.061.15-2.577 1.057-4.818 2.704-6.648a2 2 0 112.973 2.677c-1.029 1.143-1.585 2.519-1.684 4.204-.287 4.932-1.308 8.198-4.25 10.157z"
                fill="#9EA7BC"/>
        </g>
        <path
            d="M68.5 77.5l-18.094 45.479a.5.5 0 00.63.656L95.5 108c13.333-5 15.5-15.167 6.5-30.5-1.732-2.951-10.5-13-22.5-13-5.333 0-9 4.333-11 13z"
            fill="#1F2E3D" opacity=".2"/>
        <path
            d="M68.49 58.708c-6.909 6.947-3.107 21.282 7.806 32.256 10.918 10.977 25.193 14.805 32.11 7.849 6.91-6.947 3.108-21.283-7.805-32.256C89.79 55.689 75.693 51.829 68.7 58.502l-.21.206zm2.836 2.82c4.938-4.965 16.877-1.764 26.438 7.85 9.566 9.618 12.754 21.64 7.807 26.614-4.939 4.966-16.877 1.765-26.439-7.849-9.464-9.516-12.685-21.384-7.961-26.453l.155-.161z"
            fill="#1F2E3D" fill-rule="nonzero"/>
        <path
            d="M61.258 77.587a2 2 0 013.792 1.265L65 79l-12.603 36.665 49.931-17.799a2 2 0 012.498 1.067l.058.145a2 2 0 01-1.067 2.498l-.145.058-53.797 19.177a2.1 2.1 0 01-2.728-2.543l.058-.177 14.053-40.504z"
            fill="#1F2E3D" fill-rule="nonzero"/>
        <path
            d="M118.946 48.212l-5.997-3.196a2.5 2.5 0 00-3.676 2.25l.115 6.6a2.5 2.5 0 003.752 2.12l5.883-3.404a2.5 2.5 0 00-.077-4.37zm-2.205 2.224l-4.368 2.528-.085-4.9 4.453 2.372zM79.642 7.65l-3.316 2.238a2.5 2.5 0 00-.675 3.47l2.237 3.316a2.5 2.5 0 003.47.675l3.316-2.237a2.5 2.5 0 00.675-3.47l-2.237-3.316a2.5 2.5 0 00-3.47-.675zm1.263 2.768l1.677 2.487-2.487 1.677-1.678-2.487 2.488-1.677zM151 48a5 5 0 100 10 5 5 0 000-10zm0 3a2 2 0 110 4 2 2 0 010-4z"
            fill="#637182" fill-rule="nonzero"/>
    </g>
</svg>
